<?xml version="1.0" standalone="no"?>
<!DOCTYPE svg PUBLIC "-//W3C//DTD SVG 20010904//EN"
 "http://www.w3.org/TR/2001/REC-SVG-20010904/DTD/svg10.dtd">
<svg version="1.0" xmlns="http://www.w3.org/2000/svg"
 width="48.000000pt" height="48.000000pt" viewBox="0 0 48.000000 48.000000"
 preserveAspectRatio="xMidYMid meet">

<g transform="translate(0.000000,48.000000) scale(0.100000,-0.100000)"
fill="#000000" stroke="none">
<path d="M56 449 l-47 -29 3 -157 3 -157 90 -52 90 -52 45 26 c149 86 135 73
138 131 3 50 5 53 48 79 l45 27 -3 55 c-3 54 -4 55 -49 79 l-46 24 -44 -24
c-43 -23 -44 -26 -47 -77 -3 -47 -6 -55 -35 -72 -18 -11 -35 -20 -39 -20 -5 0
-8 44 -8 98 l0 97 -48 27 -49 26 -47 -29z m92 -6 c40 -26 42 -30 42 -134 l0
-95 -35 -17 c-20 -9 -38 -17 -40 -17 -3 0 -5 42 -5 93 l0 94 35 18 c44 24 39
31 -7 9 -32 -15 -37 -15 -67 1 -18 9 -35 15 -37 13 -2 -2 12 -12 31 -23 l35
-18 0 -103 0 -103 45 -27 c43 -25 45 -28 45 -71 0 -24 -3 -43 -8 -41 -4 1 -42
23 -85 47 l-77 45 0 145 c0 81 4 151 8 157 9 14 63 43 80 44 7 0 25 -8 40 -17z
m265 -49 c42 -22 47 -31 47 -82 0 -37 -4 -45 -32 -62 -18 -11 -36 -20 -40 -20
-5 0 -8 19 -8 43 0 38 3 44 35 61 19 11 33 21 31 24 -3 2 -20 -5 -38 -16 -34
-21 -34 -21 -63 -2 -17 11 -34 20 -40 20 -5 0 7 -10 28 -22 34 -20 37 -26 37
-65 0 -24 -3 -43 -7 -43 -5 0 -23 9 -40 20 -29 17 -33 25 -33 62 0 51 5 60 45
81 38 20 39 20 78 1z m-89 -155 c20 -12 36 -22 36 -24 0 -2 -36 -24 -80 -50
-83 -47 -96 -49 -138 -17 l-22 17 77 47 c43 25 81 47 85 47 4 1 23 -8 42 -20z
m46 -82 l0 -43 -77 -45 c-43 -24 -81 -45 -85 -47 -5 -2 -8 17 -8 41 l0 45 78
46 c42 25 80 45 85 46 4 0 7 -19 7 -43z"/>
</g>
</svg>
